<mxfile host="app.diagrams.net" modified="2021-11-12T12:24:16.070Z" agent="5.0 (Windows NT 10.0; Win64; x64) AppleWebKit/537.36 (KHTML, like Gecko) Chrome/95.0.4638.69 Safari/537.36" etag="zg8cA1LAB8BNlzkBreJz" version="15.7.3" type="github">
  <diagram id="eF6zCIN66F8yAScpUu8c" name="Página-1">
    <mxGraphModel dx="2909" dy="1074" grid="1" gridSize="10" guides="1" tooltips="1" connect="1" arrows="1" fold="1" page="1" pageScale="1" pageWidth="1169" pageHeight="827" background="#ffffff" math="0" shadow="0">
      <root>
        <mxCell id="0" />
        <mxCell id="1" parent="0" />
        <mxCell id="V5bInI9DAQoxp1icVXf5-1" value="PERSONAL" style="whiteSpace=wrap;html=1;align=center;hachureGap=4;pointerEvents=0;" parent="1" vertex="1">
          <mxGeometry x="70" y="145" width="240" height="50" as="geometry" />
        </mxCell>
        <mxCell id="V5bInI9DAQoxp1icVXf5-6" value="INTERNO DAM&amp;nbsp;" style="whiteSpace=wrap;html=1;align=center;hachureGap=4;pointerEvents=0;" parent="1" vertex="1">
          <mxGeometry x="780" y="374" width="100" height="40" as="geometry" />
        </mxCell>
        <mxCell id="V5bInI9DAQoxp1icVXf5-8" value="INTERNO DIM" style="whiteSpace=wrap;html=1;align=center;hachureGap=4;pointerEvents=0;" parent="1" vertex="1">
          <mxGeometry x="955" y="374" width="100" height="40" as="geometry" />
        </mxCell>
        <mxCell id="V5bInI9DAQoxp1icVXf5-10" value="SOLICITA" style="shape=rhombus;perimeter=rhombusPerimeter;whiteSpace=wrap;html=1;align=center;hachureGap=4;pointerEvents=0;" parent="1" vertex="1">
          <mxGeometry x="535" y="130" width="145" height="80" as="geometry" />
        </mxCell>
        <mxCell id="V5bInI9DAQoxp1icVXf5-14" value="" style="triangle;whiteSpace=wrap;html=1;hachureGap=4;pointerEvents=0;rotation=90;" parent="1" vertex="1">
          <mxGeometry x="895" y="305" width="60" height="80" as="geometry" />
        </mxCell>
        <mxCell id="eHHGy-pUTZd2FC8bIubL-1" value="CI" style="ellipse;whiteSpace=wrap;html=1;align=center;fontStyle=4;hachureGap=4;pointerEvents=0;" parent="1" vertex="1">
          <mxGeometry x="90" y="248.5" width="50" height="20" as="geometry" />
        </mxCell>
        <mxCell id="eHHGy-pUTZd2FC8bIubL-2" value="nombre" style="ellipse;whiteSpace=wrap;html=1;align=center;hachureGap=4;pointerEvents=0;" parent="1" vertex="1">
          <mxGeometry x="140" y="218.5" width="50" height="20" as="geometry" />
        </mxCell>
        <mxCell id="eHHGy-pUTZd2FC8bIubL-5" value="" style="endArrow=none;html=1;startSize=14;endSize=14;sourcePerimeterSpacing=8;targetPerimeterSpacing=8;exitX=0.5;exitY=0;exitDx=0;exitDy=0;entryX=0.175;entryY=1;entryDx=0;entryDy=0;entryPerimeter=0;" parent="1" source="eHHGy-pUTZd2FC8bIubL-1" target="V5bInI9DAQoxp1icVXf5-1" edge="1">
          <mxGeometry width="50" height="50" relative="1" as="geometry">
            <mxPoint x="120" y="208.5" as="sourcePoint" />
            <mxPoint x="130" y="190" as="targetPoint" />
          </mxGeometry>
        </mxCell>
        <mxCell id="eHHGy-pUTZd2FC8bIubL-6" value="nickname" style="ellipse;whiteSpace=wrap;html=1;align=center;hachureGap=4;pointerEvents=0;" parent="1" vertex="1">
          <mxGeometry x="210" y="221" width="80" height="27.5" as="geometry" />
        </mxCell>
        <mxCell id="eHHGy-pUTZd2FC8bIubL-9" value="estado" style="ellipse;whiteSpace=wrap;html=1;align=center;hachureGap=4;pointerEvents=0;" parent="1" vertex="1">
          <mxGeometry x="494" y="238.5" width="60" height="20" as="geometry" />
        </mxCell>
        <mxCell id="eHHGy-pUTZd2FC8bIubL-10" value="ciudad" style="ellipse;whiteSpace=wrap;html=1;align=center;hachureGap=4;pointerEvents=0;" parent="1" vertex="1">
          <mxGeometry x="150" y="258.5" width="70" height="20" as="geometry" />
        </mxCell>
        <mxCell id="eHHGy-pUTZd2FC8bIubL-11" value="ciudad" style="ellipse;whiteSpace=wrap;html=1;align=center;hachureGap=4;pointerEvents=0;" parent="1" vertex="1">
          <mxGeometry x="270" y="261.5" width="90" height="20" as="geometry" />
        </mxCell>
        <mxCell id="eHHGy-pUTZd2FC8bIubL-12" value="contraseña" style="ellipse;whiteSpace=wrap;html=1;align=center;hachureGap=4;pointerEvents=0;" parent="1" vertex="1">
          <mxGeometry x="190" y="48.5" width="100" height="40" as="geometry" />
        </mxCell>
        <mxCell id="eHHGy-pUTZd2FC8bIubL-13" value="registrado por&amp;nbsp;" style="ellipse;whiteSpace=wrap;html=1;align=center;hachureGap=4;pointerEvents=0;" parent="1" vertex="1">
          <mxGeometry x="70" y="48.5" width="100" height="40" as="geometry" />
        </mxCell>
        <mxCell id="eHHGy-pUTZd2FC8bIubL-16" value="" style="endArrow=none;html=1;startSize=14;endSize=14;sourcePerimeterSpacing=8;targetPerimeterSpacing=8;entryX=0.397;entryY=1.064;entryDx=0;entryDy=0;exitX=0.435;exitY=0.02;exitDx=0;exitDy=0;exitPerimeter=0;entryPerimeter=0;" parent="1" source="eHHGy-pUTZd2FC8bIubL-2" target="V5bInI9DAQoxp1icVXf5-1" edge="1">
          <mxGeometry width="50" height="50" relative="1" as="geometry">
            <mxPoint x="175" y="208.5" as="sourcePoint" />
            <mxPoint x="225" y="158.5" as="targetPoint" />
          </mxGeometry>
        </mxCell>
        <mxCell id="eHHGy-pUTZd2FC8bIubL-17" value="" style="endArrow=none;html=1;startSize=14;endSize=14;sourcePerimeterSpacing=8;targetPerimeterSpacing=8;entryX=0.75;entryY=1;entryDx=0;entryDy=0;exitX=0.452;exitY=-0.022;exitDx=0;exitDy=0;exitPerimeter=0;" parent="1" source="eHHGy-pUTZd2FC8bIubL-6" target="V5bInI9DAQoxp1icVXf5-1" edge="1">
          <mxGeometry width="50" height="50" relative="1" as="geometry">
            <mxPoint x="225" y="223.5" as="sourcePoint" />
            <mxPoint x="250" y="168.5" as="targetPoint" />
          </mxGeometry>
        </mxCell>
        <mxCell id="eHHGy-pUTZd2FC8bIubL-19" value="" style="endArrow=none;html=1;startSize=14;endSize=14;sourcePerimeterSpacing=8;targetPerimeterSpacing=8;entryX=0.915;entryY=1.014;entryDx=0;entryDy=0;entryPerimeter=0;exitX=0.5;exitY=0;exitDx=0;exitDy=0;" parent="1" source="eHHGy-pUTZd2FC8bIubL-9" target="V5bInI9DAQoxp1icVXf5-1" edge="1">
          <mxGeometry width="50" height="50" relative="1" as="geometry">
            <mxPoint x="320" y="218.5" as="sourcePoint" />
            <mxPoint x="291.5999999999999" y="159.20000000000005" as="targetPoint" />
          </mxGeometry>
        </mxCell>
        <mxCell id="eHHGy-pUTZd2FC8bIubL-20" value="" style="endArrow=none;html=1;startSize=14;endSize=14;sourcePerimeterSpacing=8;targetPerimeterSpacing=8;entryX=0.622;entryY=1.018;entryDx=0;entryDy=0;entryPerimeter=0;exitX=0.575;exitY=-0.015;exitDx=0;exitDy=0;exitPerimeter=0;" parent="1" source="eHHGy-pUTZd2FC8bIubL-10" target="V5bInI9DAQoxp1icVXf5-1" edge="1">
          <mxGeometry width="50" height="50" relative="1" as="geometry">
            <mxPoint x="186.8499999999999" y="258.49999999999994" as="sourcePoint" />
            <mxPoint x="219.9999999999999" y="188.78000000000003" as="targetPoint" />
          </mxGeometry>
        </mxCell>
        <mxCell id="eHHGy-pUTZd2FC8bIubL-22" value="" style="endArrow=none;html=1;startSize=14;endSize=14;sourcePerimeterSpacing=8;targetPerimeterSpacing=8;entryX=0.894;entryY=1.016;entryDx=0;entryDy=0;entryPerimeter=0;exitX=0.416;exitY=-0.004;exitDx=0;exitDy=0;exitPerimeter=0;" parent="1" source="eHHGy-pUTZd2FC8bIubL-11" target="V5bInI9DAQoxp1icVXf5-1" edge="1">
          <mxGeometry width="50" height="50" relative="1" as="geometry">
            <mxPoint x="340" y="268.5" as="sourcePoint" />
            <mxPoint x="373.14999999999986" y="198.78000000000003" as="targetPoint" />
          </mxGeometry>
        </mxCell>
        <mxCell id="eHHGy-pUTZd2FC8bIubL-23" value="" style="endArrow=none;html=1;startSize=14;endSize=14;sourcePerimeterSpacing=8;targetPerimeterSpacing=8;entryX=0.5;entryY=1;entryDx=0;entryDy=0;exitX=0.25;exitY=0;exitDx=0;exitDy=0;" parent="1" source="V5bInI9DAQoxp1icVXf5-1" target="eHHGy-pUTZd2FC8bIubL-13" edge="1">
          <mxGeometry width="50" height="50" relative="1" as="geometry">
            <mxPoint x="96.84999999999991" y="158.49999999999994" as="sourcePoint" />
            <mxPoint x="129.9999999999999" y="88.78000000000003" as="targetPoint" />
          </mxGeometry>
        </mxCell>
        <mxCell id="eHHGy-pUTZd2FC8bIubL-24" value="" style="endArrow=none;html=1;startSize=14;endSize=14;sourcePerimeterSpacing=8;targetPerimeterSpacing=8;entryX=0.858;entryY=1.014;entryDx=0;entryDy=0;entryPerimeter=0;exitX=0.672;exitY=-0.026;exitDx=0;exitDy=0;exitPerimeter=0;" parent="1" source="V5bInI9DAQoxp1icVXf5-1" edge="1">
          <mxGeometry width="50" height="50" relative="1" as="geometry">
            <mxPoint x="203.42999999999992" y="158.2199999999999" as="sourcePoint" />
            <mxPoint x="236.5799999999999" y="88.5" as="targetPoint" />
          </mxGeometry>
        </mxCell>
        <mxCell id="eHHGy-pUTZd2FC8bIubL-28" value="IMPORTADOR&amp;nbsp;" style="whiteSpace=wrap;html=1;align=center;hachureGap=4;pointerEvents=0;" parent="1" vertex="1">
          <mxGeometry x="-751" y="188.25" width="210" height="50" as="geometry" />
        </mxCell>
        <mxCell id="eHHGy-pUTZd2FC8bIubL-29" value="cod" style="ellipse;whiteSpace=wrap;html=1;align=center;fontStyle=4;hachureGap=4;pointerEvents=0;" parent="1" vertex="1">
          <mxGeometry x="-801" y="288.25" width="50" height="20" as="geometry" />
        </mxCell>
        <mxCell id="eHHGy-pUTZd2FC8bIubL-30" value="NIT" style="ellipse;whiteSpace=wrap;html=1;align=center;hachureGap=4;pointerEvents=0;" parent="1" vertex="1">
          <mxGeometry x="-741" y="288.25" width="50" height="20" as="geometry" />
        </mxCell>
        <mxCell id="eHHGy-pUTZd2FC8bIubL-31" value="" style="endArrow=none;html=1;startSize=14;endSize=14;sourcePerimeterSpacing=8;targetPerimeterSpacing=8;exitX=0.5;exitY=0;exitDx=0;exitDy=0;entryX=0.123;entryY=1.045;entryDx=0;entryDy=0;entryPerimeter=0;" parent="1" source="eHHGy-pUTZd2FC8bIubL-29" target="eHHGy-pUTZd2FC8bIubL-28" edge="1">
          <mxGeometry width="50" height="50" relative="1" as="geometry">
            <mxPoint x="-761" y="278.25" as="sourcePoint" />
            <mxPoint x="-711" y="228.25" as="targetPoint" />
          </mxGeometry>
        </mxCell>
        <mxCell id="eHHGy-pUTZd2FC8bIubL-32" value="celular" style="ellipse;whiteSpace=wrap;html=1;align=center;hachureGap=4;pointerEvents=0;" parent="1" vertex="1">
          <mxGeometry x="-665" y="288.25" width="40" height="20" as="geometry" />
        </mxCell>
        <mxCell id="eHHGy-pUTZd2FC8bIubL-33" value="ciudad" style="ellipse;whiteSpace=wrap;html=1;align=center;hachureGap=4;pointerEvents=0;" parent="1" vertex="1">
          <mxGeometry x="-601" y="288.25" width="50" height="20" as="geometry" />
        </mxCell>
        <mxCell id="eHHGy-pUTZd2FC8bIubL-34" value="fecha_reg" style="ellipse;whiteSpace=wrap;html=1;align=center;hachureGap=4;pointerEvents=0;" parent="1" vertex="1">
          <mxGeometry x="-641" y="344.25" width="70" height="27" as="geometry" />
        </mxCell>
        <mxCell id="eHHGy-pUTZd2FC8bIubL-35" value="estado" style="ellipse;whiteSpace=wrap;html=1;align=center;hachureGap=4;pointerEvents=0;" parent="1" vertex="1">
          <mxGeometry x="-541" y="288.25" width="60" height="20" as="geometry" />
        </mxCell>
        <mxCell id="eHHGy-pUTZd2FC8bIubL-36" value="empresa&amp;nbsp;" style="ellipse;whiteSpace=wrap;html=1;align=center;hachureGap=4;pointerEvents=0;" parent="1" vertex="1">
          <mxGeometry x="-741" y="328.25" width="90" height="40" as="geometry" />
        </mxCell>
        <mxCell id="eHHGy-pUTZd2FC8bIubL-38" value="" style="endArrow=none;html=1;startSize=14;endSize=14;sourcePerimeterSpacing=8;targetPerimeterSpacing=8;exitX=0.435;exitY=0.02;exitDx=0;exitDy=0;exitPerimeter=0;entryX=0.325;entryY=1.016;entryDx=0;entryDy=0;entryPerimeter=0;" parent="1" source="eHHGy-pUTZd2FC8bIubL-30" target="eHHGy-pUTZd2FC8bIubL-28" edge="1">
          <mxGeometry width="50" height="50" relative="1" as="geometry">
            <mxPoint x="-706" y="278.25" as="sourcePoint" />
            <mxPoint x="-656" y="228.25" as="targetPoint" />
          </mxGeometry>
        </mxCell>
        <mxCell id="eHHGy-pUTZd2FC8bIubL-39" value="" style="endArrow=none;html=1;startSize=14;endSize=14;sourcePerimeterSpacing=8;targetPerimeterSpacing=8;entryX=0.631;entryY=1.016;entryDx=0;entryDy=0;entryPerimeter=0;exitX=0.5;exitY=0;exitDx=0;exitDy=0;" parent="1" source="eHHGy-pUTZd2FC8bIubL-32" target="eHHGy-pUTZd2FC8bIubL-28" edge="1">
          <mxGeometry width="50" height="50" relative="1" as="geometry">
            <mxPoint x="-656" y="293.25" as="sourcePoint" />
            <mxPoint x="-631" y="238.25" as="targetPoint" />
          </mxGeometry>
        </mxCell>
        <mxCell id="eHHGy-pUTZd2FC8bIubL-40" value="" style="endArrow=none;html=1;startSize=14;endSize=14;sourcePerimeterSpacing=8;targetPerimeterSpacing=8;entryX=0.858;entryY=1.014;entryDx=0;entryDy=0;entryPerimeter=0;exitX=0.369;exitY=0.021;exitDx=0;exitDy=0;exitPerimeter=0;" parent="1" source="eHHGy-pUTZd2FC8bIubL-33" target="eHHGy-pUTZd2FC8bIubL-28" edge="1">
          <mxGeometry width="50" height="50" relative="1" as="geometry">
            <mxPoint x="-641" y="287.25" as="sourcePoint" />
            <mxPoint x="-678.97" y="228.25" as="targetPoint" />
          </mxGeometry>
        </mxCell>
        <mxCell id="eHHGy-pUTZd2FC8bIubL-41" value="" style="endArrow=none;html=1;startSize=14;endSize=14;sourcePerimeterSpacing=8;targetPerimeterSpacing=8;entryX=0.915;entryY=1.014;entryDx=0;entryDy=0;entryPerimeter=0;exitX=0.5;exitY=0;exitDx=0;exitDy=0;" parent="1" source="eHHGy-pUTZd2FC8bIubL-35" target="eHHGy-pUTZd2FC8bIubL-28" edge="1">
          <mxGeometry width="50" height="50" relative="1" as="geometry">
            <mxPoint x="-561" y="288.25" as="sourcePoint" />
            <mxPoint x="-589.4000000000001" y="228.95000000000005" as="targetPoint" />
          </mxGeometry>
        </mxCell>
        <mxCell id="eHHGy-pUTZd2FC8bIubL-42" value="" style="endArrow=none;html=1;startSize=14;endSize=14;sourcePerimeterSpacing=8;targetPerimeterSpacing=8;entryX=0.509;entryY=1.038;entryDx=0;entryDy=0;entryPerimeter=0;exitX=0.575;exitY=-0.015;exitDx=0;exitDy=0;exitPerimeter=0;" parent="1" source="eHHGy-pUTZd2FC8bIubL-36" target="eHHGy-pUTZd2FC8bIubL-28" edge="1">
          <mxGeometry width="50" height="50" relative="1" as="geometry">
            <mxPoint x="-694.1500000000001" y="328.25" as="sourcePoint" />
            <mxPoint x="-661.0000000000001" y="258.53" as="targetPoint" />
          </mxGeometry>
        </mxCell>
        <mxCell id="eHHGy-pUTZd2FC8bIubL-43" value="" style="endArrow=none;html=1;startSize=14;endSize=14;sourcePerimeterSpacing=8;targetPerimeterSpacing=8;entryX=0.717;entryY=1.045;entryDx=0;entryDy=0;entryPerimeter=0;exitX=0.463;exitY=0.032;exitDx=0;exitDy=0;exitPerimeter=0;" parent="1" source="eHHGy-pUTZd2FC8bIubL-34" target="eHHGy-pUTZd2FC8bIubL-28" edge="1">
          <mxGeometry width="50" height="50" relative="1" as="geometry">
            <mxPoint x="-627.5700000000002" y="328.25" as="sourcePoint" />
            <mxPoint x="-594.4200000000001" y="258.53" as="targetPoint" />
          </mxGeometry>
        </mxCell>
        <mxCell id="eHHGy-pUTZd2FC8bIubL-61" value="RECINTO" style="whiteSpace=wrap;html=1;align=center;hachureGap=4;pointerEvents=0;" parent="1" vertex="1">
          <mxGeometry x="-985" y="436" width="210" height="50" as="geometry" />
        </mxCell>
        <mxCell id="eHHGy-pUTZd2FC8bIubL-62" value="codigo_ad" style="ellipse;whiteSpace=wrap;html=1;align=center;fontStyle=4;hachureGap=4;pointerEvents=0;" parent="1" vertex="1">
          <mxGeometry x="-1005" y="526" width="60" height="20" as="geometry" />
        </mxCell>
        <mxCell id="eHHGy-pUTZd2FC8bIubL-63" value="aduana" style="ellipse;whiteSpace=wrap;html=1;align=center;hachureGap=4;pointerEvents=0;" parent="1" vertex="1">
          <mxGeometry x="-935" y="526" width="50" height="20" as="geometry" />
        </mxCell>
        <mxCell id="eHHGy-pUTZd2FC8bIubL-64" value="" style="endArrow=none;html=1;startSize=14;endSize=14;sourcePerimeterSpacing=8;targetPerimeterSpacing=8;exitX=0.5;exitY=0;exitDx=0;exitDy=0;entryX=0.111;entryY=1.064;entryDx=0;entryDy=0;entryPerimeter=0;" parent="1" source="eHHGy-pUTZd2FC8bIubL-62" target="eHHGy-pUTZd2FC8bIubL-61" edge="1">
          <mxGeometry width="50" height="50" relative="1" as="geometry">
            <mxPoint x="-955" y="516" as="sourcePoint" />
            <mxPoint x="-905" y="466" as="targetPoint" />
          </mxGeometry>
        </mxCell>
        <mxCell id="eHHGy-pUTZd2FC8bIubL-65" value="identificador_regional" style="ellipse;whiteSpace=wrap;html=1;align=center;hachureGap=4;pointerEvents=0;" parent="1" vertex="1">
          <mxGeometry x="-875" y="518.5" width="120" height="35" as="geometry" />
        </mxCell>
        <mxCell id="eHHGy-pUTZd2FC8bIubL-66" value="estado" style="ellipse;whiteSpace=wrap;html=1;align=center;hachureGap=4;pointerEvents=0;" parent="1" vertex="1">
          <mxGeometry x="-735" y="526" width="60" height="20" as="geometry" />
        </mxCell>
        <mxCell id="eHHGy-pUTZd2FC8bIubL-67" value="regional" style="ellipse;whiteSpace=wrap;html=1;align=center;hachureGap=4;pointerEvents=0;" parent="1" vertex="1">
          <mxGeometry x="-935" y="566" width="90" height="40" as="geometry" />
        </mxCell>
        <mxCell id="eHHGy-pUTZd2FC8bIubL-68" value="año" style="ellipse;whiteSpace=wrap;html=1;align=center;hachureGap=4;pointerEvents=0;" parent="1" vertex="1">
          <mxGeometry x="-775" y="553.5" width="90" height="20" as="geometry" />
        </mxCell>
        <mxCell id="eHHGy-pUTZd2FC8bIubL-69" value="celular" style="ellipse;whiteSpace=wrap;html=1;align=center;hachureGap=4;pointerEvents=0;" parent="1" vertex="1">
          <mxGeometry x="-885" y="356" width="100" height="40" as="geometry" />
        </mxCell>
        <mxCell id="eHHGy-pUTZd2FC8bIubL-70" value="registrado por&amp;nbsp;" style="ellipse;whiteSpace=wrap;html=1;align=center;hachureGap=4;pointerEvents=0;" parent="1" vertex="1">
          <mxGeometry x="-1005" y="356" width="100" height="40" as="geometry" />
        </mxCell>
        <mxCell id="eHHGy-pUTZd2FC8bIubL-71" value="" style="endArrow=none;html=1;startSize=14;endSize=14;sourcePerimeterSpacing=8;targetPerimeterSpacing=8;entryX=0.397;entryY=1.064;entryDx=0;entryDy=0;exitX=0.435;exitY=0.02;exitDx=0;exitDy=0;exitPerimeter=0;entryPerimeter=0;" parent="1" source="eHHGy-pUTZd2FC8bIubL-63" target="eHHGy-pUTZd2FC8bIubL-61" edge="1">
          <mxGeometry width="50" height="50" relative="1" as="geometry">
            <mxPoint x="-900" y="516" as="sourcePoint" />
            <mxPoint x="-850" y="466" as="targetPoint" />
          </mxGeometry>
        </mxCell>
        <mxCell id="eHHGy-pUTZd2FC8bIubL-72" value="" style="endArrow=none;html=1;startSize=14;endSize=14;sourcePerimeterSpacing=8;targetPerimeterSpacing=8;entryX=0.631;entryY=1.016;entryDx=0;entryDy=0;entryPerimeter=0;exitX=0.452;exitY=-0.022;exitDx=0;exitDy=0;exitPerimeter=0;" parent="1" source="eHHGy-pUTZd2FC8bIubL-65" target="eHHGy-pUTZd2FC8bIubL-61" edge="1">
          <mxGeometry width="50" height="50" relative="1" as="geometry">
            <mxPoint x="-850" y="531" as="sourcePoint" />
            <mxPoint x="-825" y="476" as="targetPoint" />
          </mxGeometry>
        </mxCell>
        <mxCell id="eHHGy-pUTZd2FC8bIubL-73" value="" style="endArrow=none;html=1;startSize=14;endSize=14;sourcePerimeterSpacing=8;targetPerimeterSpacing=8;entryX=0.915;entryY=1.014;entryDx=0;entryDy=0;entryPerimeter=0;exitX=0.5;exitY=0;exitDx=0;exitDy=0;" parent="1" source="eHHGy-pUTZd2FC8bIubL-66" target="eHHGy-pUTZd2FC8bIubL-61" edge="1">
          <mxGeometry width="50" height="50" relative="1" as="geometry">
            <mxPoint x="-755" y="526" as="sourcePoint" />
            <mxPoint x="-783.4000000000001" y="466.70000000000005" as="targetPoint" />
          </mxGeometry>
        </mxCell>
        <mxCell id="eHHGy-pUTZd2FC8bIubL-74" value="" style="endArrow=none;html=1;startSize=14;endSize=14;sourcePerimeterSpacing=8;targetPerimeterSpacing=8;entryX=0.509;entryY=1.038;entryDx=0;entryDy=0;entryPerimeter=0;exitX=0.575;exitY=-0.015;exitDx=0;exitDy=0;exitPerimeter=0;" parent="1" source="eHHGy-pUTZd2FC8bIubL-67" target="eHHGy-pUTZd2FC8bIubL-61" edge="1">
          <mxGeometry width="50" height="50" relative="1" as="geometry">
            <mxPoint x="-888.1500000000001" y="566" as="sourcePoint" />
            <mxPoint x="-855.0000000000001" y="496.28" as="targetPoint" />
          </mxGeometry>
        </mxCell>
        <mxCell id="eHHGy-pUTZd2FC8bIubL-75" value="" style="endArrow=none;html=1;startSize=14;endSize=14;sourcePerimeterSpacing=8;targetPerimeterSpacing=8;entryX=0.894;entryY=1.016;entryDx=0;entryDy=0;entryPerimeter=0;exitX=0.416;exitY=-0.004;exitDx=0;exitDy=0;exitPerimeter=0;" parent="1" source="eHHGy-pUTZd2FC8bIubL-68" target="eHHGy-pUTZd2FC8bIubL-61" edge="1">
          <mxGeometry width="50" height="50" relative="1" as="geometry">
            <mxPoint x="-735" y="576" as="sourcePoint" />
            <mxPoint x="-701.8500000000001" y="506.28" as="targetPoint" />
          </mxGeometry>
        </mxCell>
        <mxCell id="eHHGy-pUTZd2FC8bIubL-76" value="" style="endArrow=none;html=1;startSize=14;endSize=14;sourcePerimeterSpacing=8;targetPerimeterSpacing=8;entryX=0.5;entryY=1;entryDx=0;entryDy=0;exitX=0.25;exitY=0;exitDx=0;exitDy=0;" parent="1" source="eHHGy-pUTZd2FC8bIubL-61" target="eHHGy-pUTZd2FC8bIubL-70" edge="1">
          <mxGeometry width="50" height="50" relative="1" as="geometry">
            <mxPoint x="-978.1500000000001" y="466" as="sourcePoint" />
            <mxPoint x="-945.0000000000001" y="396.28" as="targetPoint" />
          </mxGeometry>
        </mxCell>
        <mxCell id="eHHGy-pUTZd2FC8bIubL-77" value="" style="endArrow=none;html=1;startSize=14;endSize=14;sourcePerimeterSpacing=8;targetPerimeterSpacing=8;entryX=0.858;entryY=1.014;entryDx=0;entryDy=0;entryPerimeter=0;exitX=0.672;exitY=-0.026;exitDx=0;exitDy=0;exitPerimeter=0;" parent="1" source="eHHGy-pUTZd2FC8bIubL-61" edge="1">
          <mxGeometry width="50" height="50" relative="1" as="geometry">
            <mxPoint x="-871.57" y="465.7199999999999" as="sourcePoint" />
            <mxPoint x="-838.4200000000001" y="396" as="targetPoint" />
          </mxGeometry>
        </mxCell>
        <mxCell id="eHHGy-pUTZd2FC8bIubL-80" value="f_registro" style="ellipse;whiteSpace=wrap;html=1;align=center;hachureGap=4;pointerEvents=0;" parent="1" vertex="1">
          <mxGeometry x="300" y="38.5" width="100" height="40" as="geometry" />
        </mxCell>
        <mxCell id="eHHGy-pUTZd2FC8bIubL-81" value="" style="endArrow=none;html=1;startSize=14;endSize=14;sourcePerimeterSpacing=8;targetPerimeterSpacing=8;entryX=0.858;entryY=1.014;entryDx=0;entryDy=0;entryPerimeter=0;exitX=0.917;exitY=0;exitDx=0;exitDy=0;exitPerimeter=0;" parent="1" source="V5bInI9DAQoxp1icVXf5-1" edge="1">
          <mxGeometry width="50" height="50" relative="1" as="geometry">
            <mxPoint x="341.1200000000001" y="117.19999999999993" as="sourcePoint" />
            <mxPoint x="346.5799999999999" y="78.5" as="targetPoint" />
          </mxGeometry>
        </mxCell>
        <mxCell id="eHHGy-pUTZd2FC8bIubL-83" value="&lt;font style=&quot;vertical-align: inherit&quot;&gt;&lt;font style=&quot;vertical-align: inherit&quot;&gt;INTERNO&lt;/font&gt;&lt;/font&gt;" style="whiteSpace=wrap;html=1;align=center;hachureGap=4;pointerEvents=0;" parent="1" vertex="1">
          <mxGeometry x="820" y="145" width="210" height="50" as="geometry" />
        </mxCell>
        <mxCell id="eHHGy-pUTZd2FC8bIubL-85" value="gestion" style="ellipse;whiteSpace=wrap;html=1;align=center;hachureGap=4;pointerEvents=0;" parent="1" vertex="1">
          <mxGeometry x="810" y="261.5" width="50" height="20" as="geometry" />
        </mxCell>
        <mxCell id="eHHGy-pUTZd2FC8bIubL-86" value="" style="endArrow=none;html=1;startSize=14;endSize=14;sourcePerimeterSpacing=8;targetPerimeterSpacing=8;exitX=0.445;exitY=0.018;exitDx=0;exitDy=0;entryX=0.5;entryY=1;entryDx=0;entryDy=0;exitPerimeter=0;" parent="1" source="eHHGy-pUTZd2FC8bIubL-122" target="V5bInI9DAQoxp1icVXf5-6" edge="1">
          <mxGeometry width="50" height="50" relative="1" as="geometry">
            <mxPoint x="758.3499999999999" y="472.5" as="sourcePoint" />
            <mxPoint x="799.16" y="403.20000000000005" as="targetPoint" />
          </mxGeometry>
        </mxCell>
        <mxCell id="eHHGy-pUTZd2FC8bIubL-87" value="regional" style="ellipse;whiteSpace=wrap;html=1;align=center;hachureGap=4;pointerEvents=0;" parent="1" vertex="1">
          <mxGeometry x="1000" y="30" width="120" height="35" as="geometry" />
        </mxCell>
        <mxCell id="eHHGy-pUTZd2FC8bIubL-88" value="estado" style="ellipse;whiteSpace=wrap;html=1;align=center;hachureGap=4;pointerEvents=0;" parent="1" vertex="1">
          <mxGeometry x="920" y="65" width="60" height="20" as="geometry" />
        </mxCell>
        <mxCell id="eHHGy-pUTZd2FC8bIubL-89" value="cod_aduana" style="ellipse;whiteSpace=wrap;html=1;align=center;hachureGap=4;pointerEvents=0;" parent="1" vertex="1">
          <mxGeometry x="950" y="275" width="90" height="40" as="geometry" />
        </mxCell>
        <mxCell id="eHHGy-pUTZd2FC8bIubL-90" value="mes" style="ellipse;whiteSpace=wrap;html=1;align=center;hachureGap=4;pointerEvents=0;" parent="1" vertex="1">
          <mxGeometry x="1030" y="225" width="90" height="20" as="geometry" />
        </mxCell>
        <mxCell id="eHHGy-pUTZd2FC8bIubL-92" value="fecha" style="ellipse;whiteSpace=wrap;html=1;align=center;hachureGap=4;pointerEvents=0;" parent="1" vertex="1">
          <mxGeometry x="785" y="65" width="100" height="40" as="geometry" />
        </mxCell>
        <mxCell id="eHHGy-pUTZd2FC8bIubL-93" value="" style="endArrow=none;html=1;startSize=14;endSize=14;sourcePerimeterSpacing=8;targetPerimeterSpacing=8;exitX=0.435;exitY=0.02;exitDx=0;exitDy=0;exitPerimeter=0;entryX=0.084;entryY=1.017;entryDx=0;entryDy=0;entryPerimeter=0;" parent="1" source="eHHGy-pUTZd2FC8bIubL-85" target="eHHGy-pUTZd2FC8bIubL-83" edge="1">
          <mxGeometry width="50" height="50" relative="1" as="geometry">
            <mxPoint x="890" y="225" as="sourcePoint" />
            <mxPoint x="840" y="188" as="targetPoint" />
          </mxGeometry>
        </mxCell>
        <mxCell id="eHHGy-pUTZd2FC8bIubL-94" value="" style="endArrow=none;html=1;startSize=14;endSize=14;sourcePerimeterSpacing=8;targetPerimeterSpacing=8;exitX=0.5;exitY=1;exitDx=0;exitDy=0;entryX=0.914;entryY=-0.06;entryDx=0;entryDy=0;entryPerimeter=0;" parent="1" source="eHHGy-pUTZd2FC8bIubL-87" target="eHHGy-pUTZd2FC8bIubL-83" edge="1">
          <mxGeometry width="50" height="50" relative="1" as="geometry">
            <mxPoint x="940" y="240" as="sourcePoint" />
            <mxPoint x="990" y="195" as="targetPoint" />
          </mxGeometry>
        </mxCell>
        <mxCell id="eHHGy-pUTZd2FC8bIubL-95" value="" style="endArrow=none;html=1;startSize=14;endSize=14;sourcePerimeterSpacing=8;targetPerimeterSpacing=8;entryX=0.75;entryY=0;entryDx=0;entryDy=0;" parent="1" target="eHHGy-pUTZd2FC8bIubL-83" edge="1">
          <mxGeometry width="50" height="50" relative="1" as="geometry">
            <mxPoint x="953" y="85" as="sourcePoint" />
            <mxPoint x="1006.5999999999999" y="175.70000000000005" as="targetPoint" />
          </mxGeometry>
        </mxCell>
        <mxCell id="eHHGy-pUTZd2FC8bIubL-96" value="" style="endArrow=none;html=1;startSize=14;endSize=14;sourcePerimeterSpacing=8;targetPerimeterSpacing=8;exitX=0.575;exitY=-0.015;exitDx=0;exitDy=0;exitPerimeter=0;entryX=0.833;entryY=0.9;entryDx=0;entryDy=0;entryPerimeter=0;" parent="1" source="eHHGy-pUTZd2FC8bIubL-89" edge="1" target="eHHGy-pUTZd2FC8bIubL-83">
          <mxGeometry width="50" height="50" relative="1" as="geometry">
            <mxPoint x="901.8499999999999" y="275" as="sourcePoint" />
            <mxPoint x="1002" y="220" as="targetPoint" />
          </mxGeometry>
        </mxCell>
        <mxCell id="eHHGy-pUTZd2FC8bIubL-97" value="" style="endArrow=none;html=1;startSize=14;endSize=14;sourcePerimeterSpacing=8;targetPerimeterSpacing=8;entryX=0.894;entryY=1.016;entryDx=0;entryDy=0;entryPerimeter=0;exitX=0.416;exitY=-0.004;exitDx=0;exitDy=0;exitPerimeter=0;" parent="1" source="eHHGy-pUTZd2FC8bIubL-90" target="eHHGy-pUTZd2FC8bIubL-83" edge="1">
          <mxGeometry width="50" height="50" relative="1" as="geometry">
            <mxPoint x="1055" y="285" as="sourcePoint" />
            <mxPoint x="1088.1499999999999" y="215.27999999999997" as="targetPoint" />
          </mxGeometry>
        </mxCell>
        <mxCell id="eHHGy-pUTZd2FC8bIubL-98" value="" style="endArrow=none;html=1;startSize=14;endSize=14;sourcePerimeterSpacing=8;targetPerimeterSpacing=8;entryX=0.5;entryY=1;entryDx=0;entryDy=0;exitX=0.25;exitY=0;exitDx=0;exitDy=0;" parent="1" source="eHHGy-pUTZd2FC8bIubL-83" target="eHHGy-pUTZd2FC8bIubL-92" edge="1">
          <mxGeometry width="50" height="50" relative="1" as="geometry">
            <mxPoint x="811.8499999999999" y="175" as="sourcePoint" />
            <mxPoint x="844.9999999999999" y="105.27999999999997" as="targetPoint" />
          </mxGeometry>
        </mxCell>
        <mxCell id="eHHGy-pUTZd2FC8bIubL-116" value="" style="endArrow=none;html=1;startSize=14;endSize=14;sourcePerimeterSpacing=8;targetPerimeterSpacing=8;entryX=0.5;entryY=0;entryDx=0;entryDy=0;exitX=0.62;exitY=0.025;exitDx=0;exitDy=0;exitPerimeter=0;" parent="1" source="V5bInI9DAQoxp1icVXf5-8" target="V5bInI9DAQoxp1icVXf5-14" edge="1">
          <mxGeometry width="50" height="50" relative="1" as="geometry">
            <mxPoint x="975" y="385" as="sourcePoint" />
            <mxPoint x="1025" y="335" as="targetPoint" />
          </mxGeometry>
        </mxCell>
        <mxCell id="eHHGy-pUTZd2FC8bIubL-118" value="" style="endArrow=none;html=1;startSize=14;endSize=14;sourcePerimeterSpacing=8;targetPerimeterSpacing=8;entryX=0.5;entryY=1;entryDx=0;entryDy=0;exitX=0;exitY=0.5;exitDx=0;exitDy=0;" parent="1" source="V5bInI9DAQoxp1icVXf5-14" target="eHHGy-pUTZd2FC8bIubL-83" edge="1">
          <mxGeometry width="50" height="50" relative="1" as="geometry">
            <mxPoint x="890" y="315" as="sourcePoint" />
            <mxPoint x="915" y="240" as="targetPoint" />
          </mxGeometry>
        </mxCell>
        <mxCell id="eHHGy-pUTZd2FC8bIubL-119" value="" style="endArrow=none;html=1;startSize=14;endSize=14;sourcePerimeterSpacing=8;targetPerimeterSpacing=8;exitX=0.59;exitY=0;exitDx=0;exitDy=0;exitPerimeter=0;entryX=0.5;entryY=1;entryDx=0;entryDy=0;" parent="1" source="V5bInI9DAQoxp1icVXf5-6" target="V5bInI9DAQoxp1icVXf5-14" edge="1">
          <mxGeometry width="50" height="50" relative="1" as="geometry">
            <mxPoint x="810" y="395" as="sourcePoint" />
            <mxPoint x="870" y="345" as="targetPoint" />
          </mxGeometry>
        </mxCell>
        <mxCell id="eHHGy-pUTZd2FC8bIubL-120" value="interno_dim" style="ellipse;whiteSpace=wrap;html=1;align=center;fontStyle=4;hachureGap=4;pointerEvents=0;" parent="1" vertex="1">
          <mxGeometry x="960" y="470" width="110" height="27.5" as="geometry" />
        </mxCell>
        <mxCell id="eHHGy-pUTZd2FC8bIubL-121" value="" style="endArrow=none;html=1;startSize=14;endSize=14;sourcePerimeterSpacing=8;targetPerimeterSpacing=8;exitX=0.5;exitY=0;exitDx=0;exitDy=0;entryX=0.58;entryY=0.975;entryDx=0;entryDy=0;entryPerimeter=0;" parent="1" source="eHHGy-pUTZd2FC8bIubL-120" target="V5bInI9DAQoxp1icVXf5-8" edge="1">
          <mxGeometry width="50" height="50" relative="1" as="geometry">
            <mxPoint x="1005" y="435" as="sourcePoint" />
            <mxPoint x="969.15" y="425" as="targetPoint" />
          </mxGeometry>
        </mxCell>
        <mxCell id="eHHGy-pUTZd2FC8bIubL-122" value="interno_dim" style="ellipse;whiteSpace=wrap;html=1;align=center;fontStyle=4;hachureGap=4;pointerEvents=0;" parent="1" vertex="1">
          <mxGeometry x="775" y="470" width="110" height="27.5" as="geometry" />
        </mxCell>
        <mxCell id="eHHGy-pUTZd2FC8bIubL-124" value="" style="endArrow=none;html=1;rounded=0;startSize=14;endSize=14;sourcePerimeterSpacing=8;targetPerimeterSpacing=8;exitX=1;exitY=0.5;exitDx=0;exitDy=0;entryX=0;entryY=0.5;entryDx=0;entryDy=0;" parent="1" source="V5bInI9DAQoxp1icVXf5-1" target="V5bInI9DAQoxp1icVXf5-10" edge="1">
          <mxGeometry relative="1" as="geometry">
            <mxPoint x="365" y="169.5" as="sourcePoint" />
            <mxPoint x="525" y="169.5" as="targetPoint" />
          </mxGeometry>
        </mxCell>
        <mxCell id="eHHGy-pUTZd2FC8bIubL-127" value="" style="endArrow=none;html=1;rounded=0;startSize=14;endSize=14;sourcePerimeterSpacing=8;targetPerimeterSpacing=8;exitX=1;exitY=0.5;exitDx=0;exitDy=0;entryX=0;entryY=0.5;entryDx=0;entryDy=0;" parent="1" source="V5bInI9DAQoxp1icVXf5-10" target="eHHGy-pUTZd2FC8bIubL-83" edge="1">
          <mxGeometry relative="1" as="geometry">
            <mxPoint x="684.9999999999998" y="169.76" as="sourcePoint" />
            <mxPoint x="750" y="170" as="targetPoint" />
          </mxGeometry>
        </mxCell>
        <mxCell id="eHHGy-pUTZd2FC8bIubL-128" value="registra" style="shape=rhombus;perimeter=rhombusPerimeter;whiteSpace=wrap;html=1;align=center;hachureGap=4;pointerEvents=0;" parent="1" vertex="1">
          <mxGeometry x="-1120" y="170" width="145" height="80" as="geometry" />
        </mxCell>
        <mxCell id="eHHGy-pUTZd2FC8bIubL-129" value="" style="endArrow=none;html=1;rounded=0;startSize=14;endSize=14;sourcePerimeterSpacing=8;targetPerimeterSpacing=8;exitX=0.5;exitY=0;exitDx=0;exitDy=0;entryX=0;entryY=0.5;entryDx=0;entryDy=0;" parent="1" source="eHHGy-pUTZd2FC8bIubL-128" target="V5bInI9DAQoxp1icVXf5-1" edge="1">
          <mxGeometry relative="1" as="geometry">
            <mxPoint x="-10" y="350" as="sourcePoint" />
            <mxPoint x="18" y="180" as="targetPoint" />
            <Array as="points">
              <mxPoint x="18" y="170" />
            </Array>
          </mxGeometry>
        </mxCell>
        <mxCell id="eHHGy-pUTZd2FC8bIubL-130" value="" style="endArrow=none;html=1;rounded=0;startSize=14;endSize=14;sourcePerimeterSpacing=8;targetPerimeterSpacing=8;exitX=0.5;exitY=1;exitDx=0;exitDy=0;entryX=0;entryY=0.5;entryDx=0;entryDy=0;" parent="1" source="eHHGy-pUTZd2FC8bIubL-128" target="eHHGy-pUTZd2FC8bIubL-61" edge="1">
          <mxGeometry relative="1" as="geometry">
            <mxPoint x="-1045" y="253" as="sourcePoint" />
            <mxPoint x="-1015" y="353" as="targetPoint" />
            <Array as="points">
              <mxPoint x="-1047" y="461" />
            </Array>
          </mxGeometry>
        </mxCell>
        <mxCell id="eHHGy-pUTZd2FC8bIubL-131" value="" style="endArrow=none;html=1;rounded=0;startSize=14;endSize=14;sourcePerimeterSpacing=8;targetPerimeterSpacing=8;exitX=1;exitY=0.5;exitDx=0;exitDy=0;entryX=0.007;entryY=0.428;entryDx=0;entryDy=0;entryPerimeter=0;" parent="1" source="eHHGy-pUTZd2FC8bIubL-128" target="eHHGy-pUTZd2FC8bIubL-28" edge="1">
          <mxGeometry relative="1" as="geometry">
            <mxPoint x="-970" y="210" as="sourcePoint" />
            <mxPoint x="-810" y="210" as="targetPoint" />
          </mxGeometry>
        </mxCell>
        <mxCell id="eHHGy-pUTZd2FC8bIubL-132" value="1:N" style="text;strokeColor=none;fillColor=none;spacingLeft=4;spacingRight=4;overflow=hidden;rotatable=0;points=[[0,0.5],[1,0.5]];portConstraint=eastwest;fontSize=12;hachureGap=4;pointerEvents=0;" parent="1" vertex="1">
          <mxGeometry x="785" y="145" width="40" height="30" as="geometry" />
        </mxCell>
        <mxCell id="eHHGy-pUTZd2FC8bIubL-133" value="1:N" style="text;strokeColor=none;fillColor=none;spacingLeft=4;spacingRight=4;overflow=hidden;rotatable=0;points=[[0,0.5],[1,0.5]];portConstraint=eastwest;fontSize=12;hachureGap=4;pointerEvents=0;" parent="1" vertex="1">
          <mxGeometry x="315" y="145" width="40" height="30" as="geometry" />
        </mxCell>
        <mxCell id="eHHGy-pUTZd2FC8bIubL-134" value="1:N" style="text;strokeColor=none;fillColor=none;spacingLeft=4;spacingRight=4;overflow=hidden;rotatable=0;points=[[0,0.5],[1,0.5]];portConstraint=eastwest;fontSize=12;hachureGap=4;pointerEvents=0;" parent="1" vertex="1">
          <mxGeometry x="40" y="145" width="40" height="30" as="geometry" />
        </mxCell>
        <mxCell id="eHHGy-pUTZd2FC8bIubL-135" value="1:N" style="text;strokeColor=none;fillColor=none;spacingLeft=4;spacingRight=4;overflow=hidden;rotatable=0;points=[[0,0.5],[1,0.5]];portConstraint=eastwest;fontSize=12;hachureGap=4;pointerEvents=0;" parent="1" vertex="1">
          <mxGeometry x="-785" y="188.25" width="40" height="30" as="geometry" />
        </mxCell>
        <mxCell id="eHHGy-pUTZd2FC8bIubL-136" value="1:N" style="text;strokeColor=none;fillColor=none;spacingLeft=4;spacingRight=4;overflow=hidden;rotatable=0;points=[[0,0.5],[1,0.5]];portConstraint=eastwest;fontSize=12;hachureGap=4;pointerEvents=0;" parent="1" vertex="1">
          <mxGeometry x="-1015" y="436" width="40" height="30" as="geometry" />
        </mxCell>
      </root>
    </mxGraphModel>
  </diagram>
</mxfile>
